<svg width="960" height="540" viewBox="0 0 960 540" fill="none" xmlns="http://www.w3.org/2000/svg">
<g clip-path="url(#clip0_1_2)">
<path d="M960 0H0V540H960V0Z" fill="#001220"/>
<path d="M675 540L683.8 527.2C692.7 514.3 710.3 488.7 717.2 463C724 437.3 720 411.7 720.3 386C720.7 360.3 725.3 334.7 715.3 308.8C705.3 283 680.7 257 674.8 231.2C669 205.3 682 179.7 695.7 154C709.3 128.3 723.7 102.7 717.7 77C711.7 51.3 685.3 25.7 672.2 12.8L659 0H960V12.8C960 25.7 960 51.3 960 77C960 102.7 960 128.3 960 154C960 179.7 960 205.3 960 231.2C960 257 960 283 960 308.8C960 334.7 960 360.3 960 386C960 411.7 960 437.3 960 463C960 488.7 960 514.3 960 527.2V540H675Z" fill="#C62368"/>
<path d="M710 540L716.2 527.2C722.3 514.3 734.7 488.7 740.5 463C746.3 437.3 745.7 411.7 745 386C744.3 360.3 743.7 334.7 749.3 308.8C755 283 767 257 765.2 231.2C763.3 205.3 747.7 179.7 741.7 154C735.7 128.3 739.3 102.7 734.8 77C730.3 51.3 717.7 25.7 711.3 12.8L705 0H960V12.8C960 25.7 960 51.3 960 77C960 102.7 960 128.3 960 154C960 179.7 960 205.3 960 231.2C960 257 960 283 960 308.8C960 334.7 960 360.3 960 386C960 411.7 960 437.3 960 463C960 488.7 960 514.3 960 527.2V540H710Z" fill="#D53867"/>
<path d="M802.635 540L802.135 527.2C801.635 514.3 800.635 488.7 796.135 463C791.635 437.3 783.635 411.7 777.135 386C770.635 360.3 765.635 334.7 767.335 308.8C768.935 283 777.335 257 785.835 231.2C794.335 205.3 802.935 179.7 807.435 154C811.935 128.3 812.335 102.7 811.835 77C811.335 51.3 809.935 25.7 809.335 12.8L808.635 0H959.635V12.8C959.635 25.7 959.635 51.3 959.635 77C959.635 102.7 959.635 128.3 959.635 154C959.635 179.7 959.635 205.3 959.635 231.2C959.635 257 959.635 283 959.635 308.8C959.635 334.7 959.635 360.3 959.635 386C959.635 411.7 959.635 437.3 959.635 463C959.635 488.7 959.635 514.3 959.635 527.2V540H802.635Z" fill="#E34C67"/>
<path d="M859.148 540L853.448 527.2C847.848 514.3 836.448 488.7 832.848 463C829.148 437.3 833.148 411.7 836.448 386C839.848 360.3 842.448 334.7 846.348 308.8C850.148 283 855.148 257 851.148 231.2C847.148 205.3 834.148 179.7 827.448 154C820.848 128.3 820.448 102.7 825.148 77C829.848 51.3 839.448 25.7 844.348 12.8L849.148 0H960.148V12.8C960.148 25.7 960.148 51.3 960.148 77C960.148 102.7 960.148 128.3 960.148 154C960.148 179.7 960.148 205.3 960.148 231.2C960.148 257 960.148 283 960.148 308.8C960.148 334.7 960.148 360.3 960.148 386C960.148 411.7 960.148 437.3 960.148 463C960.148 488.7 960.148 514.3 960.148 527.2V540H859.148Z" fill="#EF5F67"/>
<path d="M872 540L875.8 527.2C879.7 514.3 887.3 488.7 888 463C888.7 437.3 882.3 411.7 880.2 386C878 360.3 880 334.7 879.3 308.8C878.7 283 875.3 257 879.2 231.2C883 205.3 894 179.7 899.8 154C905.7 128.3 906.3 102.7 908.7 77C911 51.3 915 25.7 917 12.8L919 0H960V12.8C960 25.7 960 51.3 960 77C960 102.7 960 128.3 960 154C960 179.7 960 205.3 960 231.2C960 257 960 283 960 308.8C960 334.7 960 360.3 960 386C960 411.7 960 437.3 960 463C960 488.7 960 514.3 960 527.2V540H872Z" fill="#FA7268"/>
</g>
<defs>
<clipPath id="clip0_1_2">
<rect width="960" height="540" fill="white"/>
</clipPath>
</defs>
</svg>
